<?xml version="1.0" encoding="utf-8"?>
<!-- Generator: Adobe Illustrator 19.0.0, SVG Export Plug-In . SVG Version: 6.00 Build 0)  -->
<svg version="1.1"
	 id="svg2" sodipodi:docname="pagination-responsive.svg" inkscape:version="0.48.4 r9939" xmlns:rdf="http://www.w3.org/1999/02/22-rdf-syntax-ns#" xmlns:dc="http://purl.org/dc/elements/1.1/" xmlns:svg="http://www.w3.org/2000/svg" xmlns:sodipodi="http://sodipodi.sourceforge.net/DTD/sodipodi-0.dtd" xmlns:cc="http://creativecommons.org/ns#" xmlns:inkscape="http://www.inkscape.org/namespaces/inkscape"
	 xmlns="http://www.w3.org/2000/svg" xmlns:xlink="http://www.w3.org/1999/xlink" x="0px" y="0px" viewBox="-974 451 50 100"
	 style="enable-background:new -974 451 50 100;" xml:space="preserve">
<style type="text/css">
	.st0{fill:#231F20;fill-opacity:0.3922;}
</style>
<script  xlink:href="" id="script4030"></script>
<sodipodi:namedview  inkscape:window-maximized="0" inkscape:window-y="0" inkscape:window-x="467" inkscape:window-height="778" inkscape:window-width="1125" inkscape:snap-global="true" inkscape:pageshadow="2" inkscape:current-layer="layer1" inkscape:pageopacity="0.0" inkscape:document-units="px" inkscape:zoom="2.8284271" id="base" inkscape:cx="22.027335" pagecolor="#ffffff" borderopacity="1.0" inkscape:cy="55.533381" showgrid="true" bordercolor="#666666">
	
		<inkscape:grid  type="xygrid" snapvisiblegridlinesonly="true" empspacing="5" id="grid2991" enabled="true" visible="true" spacingx="12.5px" spacingy="12.5px">
		</inkscape:grid>
</sodipodi:namedview>
<g id="layer1" transform="translate(0,-952.3622)" inkscape:groupmode="layer" inkscape:label="Layer 1">
	
		<path id="button-face-black" sodipodi:nodetypes="csccsccssscccc" inkscape:connector-curvature="0" inkscape:label="#path2999" class="st0" d="
		M-974,1503.4c27.6,0,50-22.4,50-50s-22.4-50-50-50 M-942.6,1429.8c1.8-0.1,3.6,1.1,4.3,2.7c0.7,1.7,0.3,3.7-1,5l-15.8,15.8
		l15.8,15.8c1.7,1.7,1.7,4.7,0,6.4s-4.7,1.7-6.4,0l-19-19c-1.7-1.7-1.7-4.7,0-6.4l19-19C-944.9,1430.4-943.7,1429.9-942.6,1429.8z"
		/>
</g>
</svg>
